<svg width="252" fill="none" xmlns="http://www.w3.org/2000/svg">
<g filter="url(#filter0_i_260_29463)">
<path fill-rule="evenodd" clip-rule="evenodd" d="M0 0C20.5574 16.7411 53.2827 31.8809 91.2121 18.9737C131.87 5.13801 159.057 13.8143 182.129 21.1772C195.857 25.5582 208.128 29.4742 220.912 27.9061C233.1 26.4112 243.586 19.5998 252 11.2017V303H0V0Z" fill="#0C69FF" fill-opacity="0.1"/>
</g>
<g filter="url(#filter1_i_260_29463)">
<path fill-rule="evenodd" clip-rule="evenodd" d="M241.395 20.253C225.697 13.3609 204.379 10.6698 178.609 20.0389C179.897 20.4456 181.171 20.8522 182.433 21.2548C196.161 25.6358 208.431 29.5518 221.216 27.9838C228.593 27.0789 235.347 24.2263 241.395 20.253ZM105.512 15.0194C93.7306 12.1387 77.4972 11.1559 55.6635 14.2643C45.3328 15.735 35.8973 16.409 27.3398 16.4838C45.4448 24.1344 67.431 27.2472 91.5155 19.0514C96.3675 17.4003 101.028 16.0698 105.512 15.0194Z" fill="#0C69FF" fill-opacity="0.2"/>
</g>
<defs>
<filter id="filter0_i_260_29463" x="0" y="0" width="252" height="303" filterUnits="userSpaceOnUse" color-interpolation-filters="sRGB">
<feFlood flood-opacity="0" result="BackgroundImageFix"/>
<feBlend mode="normal" in="SourceGraphic" in2="BackgroundImageFix" result="shape"/>
<feColorMatrix in="SourceAlpha" type="matrix" values="0 0 0 0 0 0 0 0 0 0 0 0 0 0 0 0 0 0 127 0" result="hardAlpha"/>
<feOffset/>
<feGaussianBlur stdDeviation="15"/>
<feComposite in2="hardAlpha" operator="arithmetic" k2="-1" k3="1"/>
<feColorMatrix type="matrix" values="0 0 0 0 0.0470588 0 0 0 0 0.411765 0 0 0 0 1 0 0 0 1 0"/>
<feBlend mode="normal" in2="shape" result="effect1_innerShadow_260_29463"/>
</filter>
<filter id="filter1_i_260_29463" x="27.3398" y="12.3494" width="214.055" height="15.9869" filterUnits="userSpaceOnUse" color-interpolation-filters="sRGB">
<feFlood flood-opacity="0" result="BackgroundImageFix"/>
<feBlend mode="normal" in="SourceGraphic" in2="BackgroundImageFix" result="shape"/>
<feColorMatrix in="SourceAlpha" type="matrix" values="0 0 0 0 0 0 0 0 0 0 0 0 0 0 0 0 0 0 127 0" result="hardAlpha"/>
<feOffset/>
<feGaussianBlur stdDeviation="3"/>
<feComposite in2="hardAlpha" operator="arithmetic" k2="-1" k3="1"/>
<feColorMatrix type="matrix" values="0 0 0 0 0.0470588 0 0 0 0 0.411765 0 0 0 0 1 0 0 0 1 0"/>
<feBlend mode="normal" in2="shape" result="effect1_innerShadow_260_29463"/>
</filter>
</defs>
</svg>
