<svg width="252" fill="none" xmlns="http://www.w3.org/2000/svg">
<g clip-path="url(#clip0_843_242277)">
<g filter="url(#filter0_i_843_242277)">
<path fill-rule="evenodd" clip-rule="evenodd" d="M0 0V109.157V303H252V109.52C252.013 109.399 252.019 109.278 252.019 109.157C252.019 109.035 252.013 108.914 252 108.793V11.2017C243.586 19.5998 233.1 26.4112 220.912 27.9061C208.128 29.4742 195.857 25.5582 182.129 21.1772C159.057 13.8143 131.87 5.13801 91.2121 18.9737C53.2827 31.8809 20.5574 16.7411 0 0Z" fill="#24B1BA" fill-opacity="0.63"/>
</g>
<g filter="url(#filter1_i_843_242277)">
<path fill-rule="evenodd" clip-rule="evenodd" d="M246.809 16.2624C229.066 6.61888 202.491 1.96777 169.302 17.2284C173.854 18.5173 178.212 19.908 182.432 21.2547C196.16 25.6357 208.431 29.5517 221.215 27.9836C230.878 26.7985 239.47 22.2719 246.809 16.2624ZM105.511 15.0193C93.7302 12.1385 77.4967 11.1557 55.6631 14.2642C45.3323 15.7349 35.8968 16.4089 27.3393 16.4836C45.4443 24.1343 67.4305 27.2471 91.515 19.0513C96.367 17.4002 101.027 16.0697 105.511 15.0193Z" fill="#97F9FF" fill-opacity="0.78"/>
</g>
</g>
<defs>
<filter id="filter0_i_843_242277" x="0" y="0" width="252.019" height="303" filterUnits="userSpaceOnUse" color-interpolation-filters="sRGB">
<feFlood flood-opacity="0" result="BackgroundImageFix"/>
<feBlend mode="normal" in="SourceGraphic" in2="BackgroundImageFix" result="shape"/>
<feColorMatrix in="SourceAlpha" type="matrix" values="0 0 0 0 0 0 0 0 0 0 0 0 0 0 0 0 0 0 127 0" result="hardAlpha"/>
<feOffset/>
<feGaussianBlur stdDeviation="11.1448"/>
<feComposite in2="hardAlpha" operator="arithmetic" k2="-1" k3="1"/>
<feColorMatrix type="matrix" values="0 0 0 0 0.0470588 0 0 0 0 0.942824 0 0 0 0 1 0 0 0 1 0"/>
<feBlend mode="normal" in2="shape" result="effect1_innerShadow_843_242277"/>
</filter>
<filter id="filter1_i_843_242277" x="27.3393" y="7.35596" width="219.47" height="20.9805" filterUnits="userSpaceOnUse" color-interpolation-filters="sRGB">
<feFlood flood-opacity="0" result="BackgroundImageFix"/>
<feBlend mode="normal" in="SourceGraphic" in2="BackgroundImageFix" result="shape"/>
<feColorMatrix in="SourceAlpha" type="matrix" values="0 0 0 0 0 0 0 0 0 0 0 0 0 0 0 0 0 0 127 0" result="hardAlpha"/>
<feOffset/>
<feGaussianBlur stdDeviation="2.22896"/>
<feComposite in2="hardAlpha" operator="arithmetic" k2="-1" k3="1"/>
<feColorMatrix type="matrix" values="0 0 0 0 0.0470588 0 0 0 0 0.885647 0 0 0 0 1 0 0 0 1 0"/>
<feBlend mode="normal" in2="shape" result="effect1_innerShadow_843_242277"/>
</filter>
<clipPath id="clip0_843_242277">
<rect width="252" height="303" fill="white"/>
</clipPath>
</defs>
</svg>
