<svg width="33" height="34" viewBox="0 0 33 34" fill="none" xmlns="http://www.w3.org/2000/svg">
<path d="M21.0088 30.0517L21.0088 26.0258C21.0089 23.8071 22.8074 22.0086 25.0261 22.0086L29.052 22.0086L29.052 5.95679L21.047 5.95679C12.1608 5.95679 4.95704 13.1605 4.95703 22.0468L4.95703 30.0517L21.0088 30.0517Z" fill="#8293B3"/>
<rect width="3.98281" height="18" transform="matrix(1 -1.06297e-07 -7.00003e-08 -1 27.9531 22.9628)" fill="#485F89"/>
<path d="M26.957 24.9628C26.957 26.0673 27.8525 26.9628 28.957 26.9628L30.9312 26.9628C32.0358 26.9628 32.9312 26.0673 32.9312 24.9628L32.9312 22.9628L26.957 22.9628L26.957 24.9628Z" fill="#485F89"/>
<path d="M32.9316 2.96277C32.9316 1.8582 32.0362 0.962769 30.9316 0.962769L28.9574 0.962769C27.8529 0.96277 26.9574 1.8582 26.9574 2.96277L26.9574 4.96277L32.9316 4.96277L32.9316 2.96277Z" fill="#485F89"/>
<rect width="3.98281" height="18" transform="matrix(6.25857e-08 1 1 -2.6289e-08 4.07422 28.9528)" fill="#485F89"/>
<path d="M2.07422 27.957C0.969649 27.957 0.0742188 28.8525 0.0742189 29.957L0.074219 31.9312C0.0742191 33.0358 0.96965 33.9312 2.07422 33.9312L4.07422 33.9312L4.07422 27.957L2.07422 27.957Z" fill="#485F89"/>
<path d="M24.0742 33.9313C25.1788 33.9313 26.0742 33.0358 26.0742 31.9313L26.0742 29.9571C26.0742 28.8525 25.1788 27.9571 24.0742 27.9571L22.0742 27.9571L22.0742 33.9313L24.0742 33.9313Z" fill="#485F89"/>
</svg>
