<svg width="288" height="314" viewBox="0 0 288 314" fill="none" xmlns="http://www.w3.org/2000/svg">
<path d="M279.311 117.505L285.622 124.41V140.521L279.311 147.425V117.505Z" stroke="#2959A8" stroke-width="4.38275"/>
<path d="M9.3111 147.425L2.99998 140.521L2.99998 124.41L9.3111 117.506L9.3111 147.425Z" stroke="#2959A8" stroke-width="4.38275"/>
<ellipse cx="144.647" cy="28.3765" rx="67.8309" ry="27.3765" stroke="#0C69FF" stroke-opacity="0.6" stroke-width="1.09569"/>
<ellipse cx="144.647" cy="28.3762" rx="37.9055" ry="15.3308" stroke="#0C69FF" stroke-opacity="0.6" stroke-width="1.09569"/>
<path d="M158.064 28.3765C158.064 29.8539 156.771 31.3589 154.288 32.5267C151.849 33.6743 148.441 34.399 144.647 34.399C140.853 34.399 137.444 33.6743 135.005 32.5267C132.523 31.3589 131.229 29.8539 131.229 28.3765C131.229 26.8991 132.523 25.3941 135.005 24.2263C137.444 23.0787 140.853 22.354 144.647 22.354C148.441 22.354 151.849 23.0787 154.288 24.2263C156.771 25.3941 158.064 26.8991 158.064 28.3765Z" stroke="#0C69FF" stroke-opacity="0.6" stroke-width="1.09569"/>
<path d="M158.064 157.593C158.064 159.071 156.771 160.576 154.288 161.744C151.849 162.891 148.441 163.616 144.647 163.616C140.853 163.616 137.444 162.891 135.005 161.744C132.523 160.576 131.229 159.071 131.229 157.593C131.229 156.116 132.523 154.611 135.005 153.443C137.444 152.295 140.853 151.571 144.647 151.571C148.441 151.571 151.849 152.295 154.288 153.443C156.771 154.611 158.064 156.116 158.064 157.593Z" stroke="#0C69FF" stroke-opacity="0.6" stroke-width="1.09569"/>
<path d="M158.064 285.715C158.064 287.192 156.771 288.697 154.288 289.865C151.849 291.013 148.441 291.737 144.647 291.737C140.853 291.737 137.444 291.013 135.005 289.865C132.523 288.697 131.229 287.192 131.229 285.715C131.229 284.237 132.523 282.732 135.005 281.565C137.444 280.417 140.853 279.692 144.647 279.692C148.441 279.692 151.849 280.417 154.288 281.565C156.771 282.732 158.064 284.237 158.064 285.715Z" stroke="#0C69FF" stroke-opacity="0.6" stroke-width="1.09569"/>
<path d="M279.311 90.7949C279.311 105.915 218.796 118.171 144.147 118.171C69.499 118.171 8.98444 105.915 8.98444 90.7949" stroke="#0C69FF" stroke-opacity="0.6" stroke-width="1.09569"/>
<path d="M279.311 157.593C279.311 172.713 218.796 184.97 144.147 184.97C69.499 184.97 8.98444 172.713 8.98444 157.593" stroke="#0C69FF" stroke-opacity="0.6" stroke-width="1.09569"/>
<path d="M279.311 90.7944C279.311 75.6748 218.796 63.418 144.147 63.418C69.499 63.418 8.98444 75.6748 8.98444 90.7944" stroke="#0C69FF" stroke-opacity="0.2" stroke-width="1.09569"/>
<path d="M279.311 157.593C279.311 142.474 218.796 130.217 144.147 130.217C69.499 130.217 8.98444 142.474 8.98444 157.593" stroke="#0C69FF" stroke-opacity="0.2" stroke-width="1.09569"/>
<path d="M279.311 223.297C279.311 238.416 218.796 250.673 144.147 250.673C69.499 250.673 8.98444 238.416 8.98444 223.297" stroke="#0C69FF" stroke-opacity="0.6" stroke-width="1.09569"/>
<path d="M279.311 223.297C279.311 208.177 218.796 195.92 144.147 195.92C69.499 195.92 8.98444 208.177 8.98444 223.297" stroke="#0C69FF" stroke-opacity="0.2" stroke-width="1.09569"/>
<ellipse cx="144.646" cy="285.715" rx="51.8707" ry="27.3764" fill="#0C69FF" fill-opacity="0.4"/>
<path d="M177.566 285.715C177.566 295.392 162.828 303.236 144.648 303.236C126.468 303.236 111.73 295.392 111.73 285.715" stroke="#0C69FF" stroke-opacity="0.6" stroke-width="1.09569"/>
<path d="M177.566 285.715C177.566 276.039 162.828 268.194 144.648 268.194C126.468 268.194 111.73 276.039 111.73 285.715" stroke="#0C69FF" stroke-opacity="0.2" stroke-width="1.09569"/>
<path fill-rule="evenodd" clip-rule="evenodd" d="M212.477 28.3765V28.3767H212.477L279.311 87.5093V87.5099V227.677L196.517 286.81H196.476C195.387 301.422 172.599 313.091 144.646 313.091C116.694 313.091 93.9056 301.422 92.8165 286.81H92.7761L8.98496 227.677L8.98468 227.677V87.5099V87.5093H8.98532L76.8153 28.377V28.3765C76.8153 13.2569 107.184 1 144.646 1C182.108 1 212.477 13.2569 212.477 28.3765Z" fill="url(#paint0_linear_851_126418)"/>
<ellipse cx="144.646" cy="28.3765" rx="67.8309" ry="27.3765" fill="#2685FF" fill-opacity="0.29" stroke="#0062FF" stroke-opacity="0.58" stroke-width="0.814083"/>
<path fill-rule="evenodd" clip-rule="evenodd" d="M130.681 28.3765C130.681 24.7478 136.934 21.8062 144.646 21.8062C152.359 21.8062 158.611 24.7478 158.611 28.3765C158.611 28.3777 158.611 28.3788 158.611 28.38V285.715C158.611 285.715 158.611 285.715 158.611 285.715C158.611 289.344 152.359 292.285 144.646 292.285C136.934 292.285 130.682 289.344 130.681 285.715C130.681 285.715 130.681 285.715 130.681 285.715V28.3765" fill="url(#paint1_linear_851_126418)" fill-opacity="0.4"/>
<path d="M144.647 34.3994V291.738" stroke="#0C69FF" stroke-opacity="0.6" stroke-width="1.09569"/>
<path d="M98.7614 49.1821L61.3187 110.571C60.6898 111.602 60.3571 112.787 60.3571 113.995V241.802C60.3571 243.619 61.1091 245.355 62.4344 246.598L132.178 311.996" stroke="#0C69FF" stroke-opacity="0.6" stroke-width="1.09569"/>
<path d="M191.032 49.1821L228.474 110.571C229.103 111.602 229.436 112.787 229.436 113.995V241.802C229.436 243.619 228.684 245.355 227.359 246.598L157.615 311.996" stroke="#0C69FF" stroke-opacity="0.6" stroke-width="1.09569"/>
<path d="M115.719 53.5625L97.5303 115.623C97.3543 116.223 97.2649 116.846 97.2649 117.472V247.083C97.2649 248.354 97.6334 249.598 98.3258 250.664L138.163 311.996" stroke="#0C69FF" stroke-opacity="0.6" stroke-width="1.09569"/>
<path d="M174.073 53.5625L192.262 115.623C192.438 116.223 192.527 116.846 192.527 117.472V247.083C192.527 248.354 192.159 249.598 191.466 250.664L151.629 311.996" stroke="#0C69FF" stroke-opacity="0.6" stroke-width="1.09569"/>
<defs>
<linearGradient id="paint0_linear_851_126418" x1="8.98468" y1="156.95" x2="279.836" y2="156.95" gradientUnits="userSpaceOnUse">
<stop stop-color="#4898FF" stop-opacity="0.78"/>
<stop offset="0.453125" stop-color="#4898FF" stop-opacity="0"/>
<stop offset="0.541667" stop-color="#4898FF" stop-opacity="0"/>
<stop offset="1" stop-color="#4898FF" stop-opacity="0.71"/>
</linearGradient>
<linearGradient id="paint1_linear_851_126418" x1="158.611" y1="156.307" x2="130.681" y2="156.307" gradientUnits="userSpaceOnUse">
<stop stop-color="#006AFF"/>
<stop offset="0.46875" stop-color="#006AFF" stop-opacity="0"/>
<stop offset="1" stop-color="#006AFF"/>
</linearGradient>
</defs>
</svg>
