<svg width="50" height="50" viewBox="0 0 50 50" fill="none" xmlns="http://www.w3.org/2000/svg">
<g filter="url(#filter0_i_347_89492)">
<rect width="47.8235" height="47.8053" transform="translate(1 1)" fill="#0C69FF" fill-opacity="0.1"/>
<rect opacity="0.2" x="1" y="1" width="47.8235" height="47.8053" fill="url(#paint0_linear_347_89492)" stroke="#0C69FF" stroke-opacity="0.3" stroke-linejoin="round"/>
<path d="M39.1934 13.805L48.8237 1V48.8053L39.1934 36.0003V13.805Z" stroke="#0C69FF" stroke-opacity="0.2" stroke-linejoin="round"/>
<path d="M10.6309 36.0002L1.00052 48.8052L1.00053 0.999895L10.6309 13.8049L10.6309 36.0002Z" stroke="#0C69FF" stroke-opacity="0.2" stroke-linejoin="round"/>
<path d="M10.4745 13.8049L0.999999 0.999942L48.8235 0.99994L39.3491 13.8049L10.4745 13.8049Z" stroke="#0C69FF" stroke-opacity="0.2" stroke-linejoin="round"/>
<path d="M39.3497 36.0002L48.8242 48.8052L1.00068 48.8052L10.4752 36.0002L39.3497 36.0002Z" stroke="#0C69FF" stroke-opacity="0.2" stroke-linejoin="round"/>
<rect x="9.9668" y="41.8337" width="11.9559" height="3.98377" stroke="#0C69FF" stroke-opacity="0.6" stroke-linejoin="round"/>
<rect x="20.9258" y="1" width="7.97059" height="3.98377" stroke="#0C69FF" stroke-opacity="0.4" stroke-linejoin="round"/>
<rect x="21.9219" y="13.9473" width="5.97794" height="1.99189" stroke="#0C69FF" stroke-opacity="0.2" stroke-linejoin="round"/>
</g>
<defs>
<filter id="filter0_i_347_89492" x="0.5" y="0.499756" width="48.8242" height="48.8057" filterUnits="userSpaceOnUse" color-interpolation-filters="sRGB">
<feFlood flood-opacity="0" result="BackgroundImageFix"/>
<feBlend mode="normal" in="SourceGraphic" in2="BackgroundImageFix" result="shape"/>
<feColorMatrix in="SourceAlpha" type="matrix" values="0 0 0 0 0 0 0 0 0 0 0 0 0 0 0 0 0 0 127 0" result="hardAlpha"/>
<feOffset/>
<feGaussianBlur stdDeviation="3"/>
<feComposite in2="hardAlpha" operator="arithmetic" k2="-1" k3="1"/>
<feColorMatrix type="matrix" values="0 0 0 0 0.120833 0 0 0 0 0.457305 0 0 0 0 1 0 0 0 1 0"/>
<feBlend mode="normal" in2="shape" result="effect1_innerShadow_347_89492"/>
</filter>
<linearGradient id="paint0_linear_347_89492" x1="24.9118" y1="1" x2="24.9118" y2="48.8053" gradientUnits="userSpaceOnUse">
<stop stop-color="#3F94E9"/>
<stop offset="0.473958" stop-color="#70B8FF" stop-opacity="0.24"/>
<stop offset="0.927083" stop-color="#3E9CF4" stop-opacity="0.894653"/>
<stop offset="1" stop-color="#90C9FF"/>
</linearGradient>
</defs>
</svg>
