<svg width="333" height="10" viewBox="0 0 333 10" fill="none" xmlns="http://www.w3.org/2000/svg">
<rect x="0.5" y="0.805176" width="332" height="8" stroke="#0C69FF" stroke-opacity="0.62"/>
<rect x="28.3926" y="3.69775" width="7.97059" height="1.99188" rx="0.995941" stroke="#0C69FF" stroke-opacity="0.4"/>
<rect x="39.3516" y="3.69775" width="7.97059" height="1.99188" rx="0.995941" stroke="#0C69FF" stroke-opacity="0.4"/>
<rect x="50.3125" y="3.69775" width="7.97059" height="1.99188" rx="0.995941" stroke="#0C69FF" stroke-opacity="0.4"/>
<rect x="61.2715" y="3.69775" width="7.97058" height="1.99188" rx="0.995941" stroke="#0C69FF" stroke-opacity="0.4"/>
<rect x="72.2305" y="3.69775" width="7.97059" height="1.99188" rx="0.995941" stroke="#0C69FF" stroke-opacity="0.4"/>
<rect x="83.1895" y="3.69775" width="7.97059" height="1.99188" rx="0.995941" stroke="#0C69FF" stroke-opacity="0.4"/>
<rect x="94.1504" y="3.69775" width="7.97059" height="1.99188" rx="0.995941" stroke="#0C69FF" stroke-opacity="0.4"/>
<rect x="105.109" y="3.69775" width="7.97059" height="1.99188" rx="0.995941" stroke="#0C69FF" stroke-opacity="0.4"/>
<rect x="116.068" y="3.69775" width="7.97059" height="1.99188" rx="0.995941" stroke="#0C69FF" stroke-opacity="0.4"/>
<rect x="146.955" y="3.69775" width="7.97058" height="1.99188" rx="0.995941" stroke="#0C69FF" stroke-opacity="0.4"/>
<rect x="157.914" y="3.69775" width="7.9706" height="1.99188" rx="0.995941" stroke="#0C69FF" stroke-opacity="0.4"/>
<rect x="168.875" y="3.69775" width="7.97058" height="1.99188" rx="0.995941" stroke="#0C69FF" stroke-opacity="0.4"/>
<rect x="179.834" y="3.69775" width="7.97058" height="1.99188" rx="0.995941" stroke="#0C69FF" stroke-opacity="0.4"/>
<rect x="190.793" y="3.69775" width="7.9706" height="1.99188" rx="0.995941" stroke="#0C69FF" stroke-opacity="0.4"/>
<rect x="201.752" y="3.69775" width="7.97058" height="1.99188" rx="0.995941" stroke="#0C69FF" stroke-opacity="0.4"/>
<rect x="212.713" y="3.69775" width="7.97058" height="1.99188" rx="0.995941" stroke="#0C69FF" stroke-opacity="0.4"/>
<rect x="223.672" y="3.69775" width="7.9706" height="1.99188" rx="0.995941" stroke="#0C69FF" stroke-opacity="0.4"/>
<rect x="234.631" y="3.69775" width="7.97058" height="1.99188" rx="0.995941" stroke="#0C69FF" stroke-opacity="0.4"/>
</svg>
