<svg width="116" height="60" viewBox="0 0 116 60" fill="none" xmlns="http://www.w3.org/2000/svg">
<rect width="116" height="60" fill="#1C2A4B"/>
<path d="M0 4H116" stroke="#253762" stroke-width="0.5"/>
<path d="M0 10H116" stroke="#253762" stroke-width="0.5"/>
<path d="M0 16H116" stroke="#253762" stroke-width="0.5"/>
<path d="M0 22H116" stroke="#253762" stroke-width="0.5"/>
<path d="M0 28H116" stroke="#253762" stroke-width="0.5"/>
<path d="M0 4H116" stroke="#253762" stroke-width="0.5"/>
<path d="M0 10H116" stroke="#253762" stroke-width="0.5"/>
<path d="M0 16H116" stroke="#253762" stroke-width="0.5"/>
<path d="M0 22H116" stroke="#253762" stroke-width="0.5"/>
<path d="M0 28H116" stroke="#253762" stroke-width="0.5"/>
<path d="M0 4H116" stroke="#253762" stroke-width="0.5"/>
<path d="M0 10H116" stroke="#253762" stroke-width="0.5"/>
<path d="M0 16H116" stroke="#253762" stroke-width="0.5"/>
<path d="M0 22H116" stroke="#253762" stroke-width="0.5"/>
<path d="M0 28H116" stroke="#253762" stroke-width="0.5"/>
<path d="M0 4H116" stroke="#253762" stroke-width="0.5"/>
<path d="M0 10H116" stroke="#253762" stroke-width="0.5"/>
<path d="M0 16H116" stroke="#253762" stroke-width="0.5"/>
<path d="M0 22H116" stroke="#253762" stroke-width="0.5"/>
<path d="M0 28H116" stroke="#253762" stroke-width="0.5"/>
<path d="M0 4H116" stroke="#253762" stroke-width="0.5"/>
<path d="M0 10H116" stroke="#253762" stroke-width="0.5"/>
<path d="M0 16H116" stroke="#253762" stroke-width="0.5"/>
<path d="M0 22H116" stroke="#253762" stroke-width="0.5"/>
<path d="M0 28H116" stroke="#253762" stroke-width="0.5"/>
<path d="M0 34H116" stroke="#253762" stroke-width="0.5"/>
<path d="M0 40H116" stroke="#253762" stroke-width="0.5"/>
<path d="M0 46H116" stroke="#253762" stroke-width="0.5"/>
<path d="M0 52H116" stroke="#253762" stroke-width="0.5"/>
<path d="M0 58H116" stroke="#253762" stroke-width="0.5"/>
<path d="M112 0L112 60" stroke="#253762" stroke-width="0.5"/>
<path d="M106 0L106 60" stroke="#253762" stroke-width="0.5"/>
<path d="M100 0L100 60" stroke="#253762" stroke-width="0.5"/>
<path d="M94 0L94 60" stroke="#253762" stroke-width="0.5"/>
<path d="M88 0L88 60" stroke="#253762" stroke-width="0.5"/>
<path d="M82 0L82 60" stroke="#253762" stroke-width="0.5"/>
<path d="M76 0L76 60" stroke="#253762" stroke-width="0.5"/>
<path d="M70 0L70 60" stroke="#253762" stroke-width="0.5"/>
<path d="M64 0L64 60" stroke="#253762" stroke-width="0.5"/>
<path d="M58 0L58 60" stroke="#253762" stroke-width="0.5"/>
<path d="M52 0L52 60" stroke="#253762" stroke-width="0.5"/>
<path d="M46 0L46 60" stroke="#253762" stroke-width="0.5"/>
<path d="M40 0L40 60" stroke="#253762" stroke-width="0.5"/>
<path d="M34 0L34 60" stroke="#253762" stroke-width="0.5"/>
<path d="M28 0L28 60" stroke="#253762" stroke-width="0.5"/>
<path d="M22 0L22 60" stroke="#253762" stroke-width="0.5"/>
<path d="M16 0L16 60" stroke="#253762" stroke-width="0.5"/>
<path d="M10 0L10 60" stroke="#253762" stroke-width="0.5"/>
<path d="M4 0L4 60" stroke="#253762" stroke-width="0.5"/>
<path d="M8 0V1.71429H1.71429V8H0V0H8Z" fill="#1E4D94"/>
<path d="M108 0V1.71429H114.286V8H116V0H108Z" fill="#1E4D94"/>
<path d="M108 60V58.2857H114.286V52H116V60H108Z" fill="#1E4D94"/>
<path d="M8 60V58.2857H1.71429V52H0V60H8Z" fill="#1E4D94"/>
</svg>
