<svg width="91" height="60" viewBox="0 0 91 60" fill="none" xmlns="http://www.w3.org/2000/svg">
<g clip-path="url(#clip0_1064_107800)">
<rect width="91" height="60" fill="#1C2A4B"/>
<path d="M-12.5 4.00003H103.5" stroke="#253762" stroke-width="0.5"/>
<path d="M-12.5 10H103.5" stroke="#253762" stroke-width="0.5"/>
<path d="M-12.5 16H103.5" stroke="#253762" stroke-width="0.5"/>
<path d="M-12.5 22H103.5" stroke="#253762" stroke-width="0.5"/>
<path d="M-12.5 28H103.5" stroke="#253762" stroke-width="0.5"/>
<path d="M-12.5 4.00003H103.5" stroke="#253762" stroke-width="0.5"/>
<path d="M-12.5 10H103.5" stroke="#253762" stroke-width="0.5"/>
<path d="M-12.5 16H103.5" stroke="#253762" stroke-width="0.5"/>
<path d="M-12.5 22H103.5" stroke="#253762" stroke-width="0.5"/>
<path d="M-12.5 28H103.5" stroke="#253762" stroke-width="0.5"/>
<path d="M-12.5 4.00003H103.5" stroke="#253762" stroke-width="0.5"/>
<path d="M-12.5 10H103.5" stroke="#253762" stroke-width="0.5"/>
<path d="M-12.5 16H103.5" stroke="#253762" stroke-width="0.5"/>
<path d="M-12.5 22H103.5" stroke="#253762" stroke-width="0.5"/>
<path d="M-12.5 28H103.5" stroke="#253762" stroke-width="0.5"/>
<path d="M-12.5 4.00003H103.5" stroke="#253762" stroke-width="0.5"/>
<path d="M-12.5 10H103.5" stroke="#253762" stroke-width="0.5"/>
<path d="M-12.5 16H103.5" stroke="#253762" stroke-width="0.5"/>
<path d="M-12.5 22H103.5" stroke="#253762" stroke-width="0.5"/>
<path d="M-12.5 28H103.5" stroke="#253762" stroke-width="0.5"/>
<path d="M-12.5 4.00018H103.5" stroke="#253762" stroke-width="0.5"/>
<path d="M-12.5 10.0002H103.5" stroke="#253762" stroke-width="0.5"/>
<path d="M-12.5 16.0002H103.5" stroke="#253762" stroke-width="0.5"/>
<path d="M-12.5 22.0002H103.5" stroke="#253762" stroke-width="0.5"/>
<path d="M-12.5 28.0002H103.5" stroke="#253762" stroke-width="0.5"/>
<path d="M-12.5 34.0002H103.5" stroke="#253762" stroke-width="0.5"/>
<path d="M-12.5 40.0002H103.5" stroke="#253762" stroke-width="0.5"/>
<path d="M-12.5 46.0002H103.5" stroke="#253762" stroke-width="0.5"/>
<path d="M-12.5 52.0002H103.5" stroke="#253762" stroke-width="0.5"/>
<path d="M-12.5 58.0002H103.5" stroke="#253762" stroke-width="0.5"/>
<path d="M87.5 0L87.5 60" stroke="#253762" stroke-width="0.5"/>
<path d="M81.5 0L81.5 60" stroke="#253762" stroke-width="0.5"/>
<path d="M75.5 0L75.5 60" stroke="#253762" stroke-width="0.5"/>
<path d="M69.5 0L69.5 60" stroke="#253762" stroke-width="0.5"/>
<path d="M63.5 0L63.5 60" stroke="#253762" stroke-width="0.5"/>
<path d="M57.5 0L57.5 60" stroke="#253762" stroke-width="0.5"/>
<path d="M51.5 0L51.5 60" stroke="#253762" stroke-width="0.5"/>
<path d="M45.5 0L45.5 60" stroke="#253762" stroke-width="0.5"/>
<path d="M39.5 0L39.5 60" stroke="#253762" stroke-width="0.5"/>
<path d="M33.5 0L33.5 60" stroke="#253762" stroke-width="0.5"/>
<path d="M27.5 0L27.5 60" stroke="#253762" stroke-width="0.5"/>
<path d="M21.5 0L21.5 60" stroke="#253762" stroke-width="0.5"/>
<path d="M15.5 0L15.5 60" stroke="#253762" stroke-width="0.5"/>
<path d="M9.5 0L9.5 60" stroke="#253762" stroke-width="0.5"/>
<path d="M3.5 0L3.5 60" stroke="#253762" stroke-width="0.5"/>
<path d="M6.27586 0V1.71429H1.34483V8H0V0H6.27586Z" fill="#1E4D94"/>
<path d="M84.7241 0V1.71429H89.6552V8H91V0H84.7241Z" fill="#1E4D94"/>
<path d="M84.7241 60V58.2857H89.6552V52H91V60H84.7241Z" fill="#1E4D94"/>
<path d="M6.27586 60V58.2857H1.34483V52H0V60H6.27586Z" fill="#1E4D94"/>
</g>
<defs>
<clipPath id="clip0_1064_107800">
<rect width="91" height="60" fill="white"/>
</clipPath>
</defs>
</svg>
