<svg width="286" height="286" viewBox="0 0 286 286" fill="none" xmlns="http://www.w3.org/2000/svg">
<path fill-rule="evenodd" clip-rule="evenodd" d="M143.5 272.124C217.752 272.124 277.946 261.302 277.946 247.954V262.14V262.666H277.913C276.324 275.482 216.754 285.785 143.5 285.785C70.2464 285.785 10.676 275.482 9.08723 262.666H9.05469V262.14V247.954C9.05469 261.302 69.248 272.124 143.5 272.124ZM9.17948 246.903C9.09657 247.251 9.05469 247.602 9.05469 247.954V246.903H9.17948ZM277.821 246.903H277.946V247.954C277.946 247.602 277.904 247.251 277.821 246.903Z" fill="url(#paint0_linear_843_241786)"/>
<path d="M269.469 50.3908L268.975 50.4673L269.04 50.8908H269.469V50.3908ZM17.5309 50.3908V50.8908H17.9594L18.025 50.4673L17.5309 50.3908ZM17.4902 50.3908V49.8908H16.9902V50.3908H17.4902ZM17.4902 246.903H16.9902V247.403H17.4902V246.903ZM17.5309 246.903L18.025 246.979L18.1142 246.403H17.5309V246.903ZM269.469 246.903V246.403H268.886L268.975 246.979L269.469 246.903ZM269.51 246.903V247.403H270.01V246.903H269.51ZM269.51 50.3908H270.01V49.8908H269.51V50.3908ZM269.963 50.3143C269.718 48.7315 268.527 47.2782 266.665 45.9465C264.791 44.6064 262.158 43.3322 258.87 42.1294C252.288 39.7223 242.983 37.5665 231.613 35.7608C208.866 32.1483 177.775 29.9243 143.5 29.9243V30.9243C177.738 30.9243 208.775 33.1463 231.456 36.7484C242.8 38.55 252.033 40.6936 258.526 43.0685C261.775 44.2567 264.313 45.4941 266.083 46.7599C267.865 48.0343 268.791 49.2814 268.975 50.4673L269.963 50.3143ZM143.5 29.9243C109.225 29.9243 78.1341 32.1483 55.3873 35.7608C44.0173 37.5665 34.7115 39.7223 28.1302 42.1294C24.8414 43.3322 22.2087 44.6064 20.3347 45.9465C18.4726 47.2782 17.2817 48.7315 17.0367 50.3143L18.025 50.4673C18.2085 49.2814 19.1345 48.0343 20.9164 46.7599C22.6865 45.4941 25.2251 44.2567 28.4737 43.0685C34.9671 40.6936 44.2004 38.55 55.5442 36.7484C78.2253 33.1463 109.262 30.9243 143.5 30.9243V29.9243ZM17.4902 50.8908H17.5309V49.8908H17.4902V50.8908ZM17.9902 50.9162V50.3908H16.9902V50.9162H17.9902ZM17.9902 246.903V50.9162H16.9902V246.903H17.9902ZM17.5309 246.403H17.4902V247.403H17.5309V246.403ZM17.0367 246.826C17.0058 247.026 16.9902 247.227 16.9902 247.428H17.9902C17.9902 247.279 18.0018 247.129 18.025 246.979L17.0367 246.826ZM16.9902 247.428C16.9902 249.067 18.0112 250.576 19.7392 251.95C21.475 253.329 24.0041 254.638 27.2133 255.871C33.6369 258.341 42.9028 260.556 54.3174 262.412C77.1545 266.126 108.685 268.42 143.5 268.42V267.42C108.722 267.42 77.2473 265.128 54.4779 261.425C43.0892 259.573 33.9014 257.371 27.5721 254.938C24.4049 253.72 21.9828 252.455 20.3614 251.167C18.7323 249.872 17.9902 248.619 17.9902 247.428H16.9902ZM143.5 268.42C178.315 268.42 209.845 266.126 232.683 262.412C244.097 260.556 253.363 258.341 259.787 255.871C262.996 254.638 265.525 253.329 267.261 251.95C268.989 250.576 270.01 249.067 270.01 247.428H269.01C269.01 248.619 268.268 249.872 266.639 251.167C265.017 252.455 262.595 253.72 259.428 254.938C253.098 257.371 243.911 259.573 232.522 261.425C209.753 265.128 178.278 267.42 143.5 267.42V268.42ZM270.01 247.428C270.01 247.227 269.994 247.026 269.963 246.826L268.975 246.979C268.998 247.129 269.01 247.279 269.01 247.428H270.01ZM269.51 246.403H269.469V247.403H269.51V246.403ZM269.01 50.9162V246.903H270.01V50.9162H269.01ZM269.01 50.3908V50.9162H270.01V50.3908H269.01ZM269.469 50.8908H269.51V49.8908H269.469V50.8908Z" fill="#0CE2FF" fill-opacity="0.6"/>
<path d="M269.51 35.6787C269.51 22.33 213.093 11.5088 143.5 11.5088C73.9067 11.5088 17.4902 22.33 17.4902 35.6787" stroke="#0CE2FF" stroke-opacity="0.6"/>
<path d="M269.51 44.0855C269.51 30.7368 213.093 19.9155 143.5 19.9155C73.9067 19.9155 17.4902 30.7368 17.4902 44.0855" stroke="#0CE2FF" stroke-opacity="0.6"/>
<path d="M269.51 50.3906C269.51 61.708 213.093 70.8825 143.5 70.8825C73.9067 70.8825 17.4902 61.708 17.4902 50.3906" stroke="#0CFFFF" stroke-opacity="0.2"/>
<path d="M269.51 247.428C269.51 258.746 213.093 267.92 143.5 267.92C73.9067 267.92 17.4902 258.746 17.4902 247.428C17.4902 236.111 73.9067 226.937 143.5 226.937C213.093 226.937 269.51 236.111 269.51 247.428Z" fill="#0CF0FF" fill-opacity="0.4"/>
<path fill-rule="evenodd" clip-rule="evenodd" d="M17.4902 239.508V246.903H17.5309C17.5038 247.077 17.4902 247.253 17.4902 247.428C17.4902 258.746 73.9067 267.92 143.5 267.92C213.093 267.92 269.51 258.746 269.51 247.428C269.51 247.253 269.496 247.077 269.469 246.903H269.51V239.508C274.964 242.137 277.946 244.983 277.946 247.953C277.946 261.302 217.752 272.123 143.5 272.123C69.248 272.123 9.05469 261.302 9.05469 247.953C9.05469 244.983 12.036 242.137 17.4902 239.508Z" fill="#AAFAFF"/>
<ellipse cx="143.5" cy="247.428" rx="90.1576" ry="15.2376" stroke="#0CF0FF" stroke-opacity="0.4"/>
<ellipse cx="143.5" cy="247.428" rx="47.9786" ry="8.93237" stroke="#0CF0FF" stroke-opacity="0.4"/>
<path d="M159.344 239.547C159.344 239.848 159.097 240.271 158.3 240.756C157.533 241.222 156.39 241.66 154.933 242.035C152.026 242.782 147.984 243.25 143.5 243.25V244.25C148.043 244.25 152.173 243.777 155.182 243.003C156.683 242.617 157.933 242.15 158.82 241.61C159.677 241.089 160.344 240.406 160.344 239.547H159.344ZM160.344 247.954V239.547H159.344V247.954H160.344ZM143.5 252.657C148.043 252.657 152.173 252.184 155.182 251.41C156.683 251.024 157.933 250.557 158.82 250.017C159.677 249.496 160.344 248.813 160.344 247.954H159.344C159.344 248.255 159.097 248.678 158.3 249.163C157.533 249.629 156.39 250.067 154.933 250.442C152.026 251.189 147.984 251.657 143.5 251.657V252.657ZM126.656 247.954C126.656 248.813 127.323 249.496 128.18 250.017C129.067 250.557 130.318 251.024 131.818 251.41C134.827 252.184 138.957 252.657 143.5 252.657V251.657C139.016 251.657 134.974 251.189 132.067 250.442C130.61 250.067 129.467 249.629 128.7 249.163C127.903 248.678 127.656 248.255 127.656 247.954H126.656ZM126.656 247.954V247.954H127.656V247.954H126.656ZM126.656 239.547V247.954H127.656V239.547H126.656ZM143.5 243.25C139.016 243.25 134.974 242.782 132.067 242.035C130.61 241.66 129.467 241.222 128.7 240.756C127.903 240.271 127.656 239.848 127.656 239.547H126.656C126.656 240.406 127.323 241.089 128.18 241.61C129.067 242.15 130.318 242.617 131.818 243.003C134.827 243.777 138.957 244.25 143.5 244.25V243.25Z" fill="#0CE2FF" fill-opacity="0.6"/>
<ellipse cx="143.5" cy="239.547" rx="16.3444" ry="4.20346" stroke="#0CE2FF" stroke-opacity="0.6"/>
<path d="M269.51 176.495C269.51 183.169 213.093 188.58 143.5 188.58C73.9067 188.58 17.4902 183.169 17.4902 176.495" stroke="#0CE2FF" stroke-opacity="0.6"/>
<path d="M17.4903 177.02C17.4903 170.346 73.9068 164.935 143.5 164.935C213.093 164.935 269.51 170.346 269.51 177.02" stroke="#0CFFFF" stroke-opacity="0.2"/>
<path d="M142.973 12.0762V267.92" stroke="#0CE2FF" stroke-opacity="0.6"/>
<path d="M159.844 12.0762V267.92" stroke="#0CD3FF" stroke-opacity="0.5"/>
<path d="M126.101 11.5088V267.353" stroke="#0CD3FF" stroke-opacity="0.5"/>
<path d="M176.716 12.0762V267.139" stroke="#0CF0FF" stroke-opacity="0.4"/>
<path d="M109.229 12.0762V267.139" stroke="#0CF0FF" stroke-opacity="0.4"/>
<path d="M193.587 13.3638V266.218" stroke="#0CFFFF" stroke-opacity="0.3"/>
<path d="M92.3579 13.3638V266.218" stroke="#0CFFFF" stroke-opacity="0.3"/>
<path d="M210.459 14.9126V264.517" stroke="#0CFFFF" stroke-opacity="0.3"/>
<path d="M75.4863 14.9126V264.517" stroke="#0CFFFF" stroke-opacity="0.3"/>
<path d="M227.331 17.1816V262.247" stroke="#0CE2FF" stroke-opacity="0.1"/>
<path d="M58.6147 17.1816V262.247" stroke="#0CE2FF" stroke-opacity="0.1"/>
<path d="M244.202 20.5854V259.411" stroke="#0CF0FF" stroke-opacity="0.08"/>
<path d="M41.7432 20.5854V259.411" stroke="#0CF0FF" stroke-opacity="0.08"/>
<path d="M261.074 25.6909V253.738" stroke="#0CFFFF" stroke-opacity="0.04"/>
<path d="M24.8716 25.6909V253.738" stroke="#0CFFFF" stroke-opacity="0.04"/>
<path opacity="0.6" d="M17.4902 35.6787V51.9671" stroke="#0CF0FF"/>
<path opacity="0.6" d="M269.51 34.6279V50.9164" stroke="#0CF0FF"/>
<path d="M20.8621 46.1874V46.6874H21.0176L21.1456 46.5993L20.8621 46.1874ZM21.1757 45.9766L21.4502 46.3945L20.9884 45.513L21.1757 45.9766ZM20.6538 46.1874L20.4665 45.7238L20.6538 46.6874V46.1874ZM34.2196 40.7066L34.0323 40.243L34.3555 41.1878L34.2196 40.7066ZM251.718 40.4122L251.587 40.8947L251.907 39.9495L251.718 40.4122ZM227.331 30.4244L227.52 29.9617L227.429 29.9244H227.331V30.4244ZM227.265 30.4244L226.78 30.3027L226.624 30.9244H227.265V30.4244ZM59.7353 30.4244V30.9244H60.3763L60.2202 30.3027L59.7353 30.4244ZM59.6694 30.4244V29.9244H59.5722L59.4821 29.9608L59.6694 30.4244ZM21.1456 46.5993C21.2448 46.531 21.3464 46.4627 21.4502 46.3945L20.9011 45.5587C20.7915 45.6308 20.6839 45.7031 20.5786 45.7756L21.1456 46.5993ZM20.9884 45.513L20.4665 45.7238L20.8411 46.651L21.363 46.4402L20.9884 45.513ZM20.6538 46.6874H20.8621V45.6874H20.6538V46.6874ZM34.3555 41.1878C56.0441 35.0618 96.7803 30.9244 143.5 30.9244V29.9244C96.7532 29.9244 55.9068 34.0614 34.0837 40.2254L34.3555 41.1878ZM143.5 30.9244C189.469 30.9244 229.646 34.9298 251.587 40.8947L251.849 39.9298C229.78 33.9299 189.497 29.9244 143.5 29.9244V30.9244ZM251.907 39.9495L227.52 29.9617L227.141 30.8871L251.528 40.8749L251.907 39.9495ZM227.331 29.9244H227.265V30.9244H227.331V29.9244ZM227.75 30.5462C227.803 30.3333 227.831 30.1173 227.831 29.899H226.831C226.831 30.0327 226.814 30.167 226.78 30.3027L227.75 30.5462ZM227.831 29.899C227.831 28.7604 227.095 27.7457 225.932 26.8547C224.758 25.9558 223.058 25.1103 220.917 24.3171C216.629 22.7285 210.452 21.3071 202.855 20.1166C187.652 17.7344 166.667 16.2632 143.5 16.2632V17.2632C166.632 17.2632 187.562 18.7326 202.7 21.1046C210.273 22.2912 216.373 23.7003 220.569 25.2548C222.67 26.0331 224.264 26.8373 225.324 27.6487C226.394 28.4679 226.831 29.224 226.831 29.899H227.831ZM143.5 16.2632C120.333 16.2632 99.3485 17.7344 84.1455 20.1166C76.5479 21.3071 70.3716 22.7285 66.0836 24.3171C63.9424 25.1103 62.2424 25.9558 61.0686 26.8547C59.905 27.7457 59.1694 28.7604 59.1694 29.899H60.1694C60.1694 29.224 60.6068 28.4679 61.6766 27.6487C62.7361 26.8373 64.3301 26.0331 66.431 25.2548C70.6271 23.7003 76.7275 22.2912 84.3003 21.1046C99.438 18.7326 120.369 17.2632 143.5 17.2632V16.2632ZM59.1694 29.899C59.1694 30.1173 59.1969 30.3333 59.2503 30.5462L60.2202 30.3027C60.1862 30.167 60.1694 30.0327 60.1694 29.899H59.1694ZM59.7353 29.9244H59.6694V30.9244H59.7353V29.9244ZM59.4821 29.9608L34.0323 40.243L34.4069 41.1702L59.8567 30.888L59.4821 29.9608Z" fill="#0CE2FF" fill-opacity="0.6"/>
<path fill-rule="evenodd" clip-rule="evenodd" d="M17.4903 35.6787C17.4903 22.33 73.9067 11.5088 143.5 11.5088C213.093 11.5088 269.51 22.33 269.51 35.6787V248.5H269.002C267.875 259.659 211.898 268.649 143.01 268.649C73.4165 268.649 17 259.474 17 248.157C17 247.543 17.1657 246.936 17.4903 246.337V35.6787Z" fill="url(#paint1_linear_843_241786)"/>
<path fill-rule="evenodd" clip-rule="evenodd" d="M25.7942 27.0314C44.4153 15.9438 85.4068 1 145.753 1C209.772 1 248.041 17.1083 263.088 28.0407C246.421 18.4351 199.178 11.5087 143.5 11.5087C89.7919 11.5087 43.9318 17.9536 25.7942 27.0314Z" fill="url(#paint2_linear_843_241786)"/>
<path d="M25.7942 27.0314L25.5384 26.6018L26.018 27.4786L25.7942 27.0314ZM263.088 28.0407L262.839 28.4739L263.382 27.6362L263.088 28.0407ZM145.753 0.5C85.3305 0.5 44.2479 15.4615 25.5384 26.6018L26.05 27.461C44.5827 16.426 85.483 1.5 145.753 1.5V0.5ZM263.382 27.6362C248.226 16.6249 209.845 0.5 145.753 0.5V1.5C209.699 1.5 247.855 17.5916 262.795 28.4452L263.382 27.6362ZM143.5 12.0087C171.32 12.0087 197.026 13.7392 217.854 16.6677C238.705 19.5996 254.596 23.7236 262.839 28.4739L263.338 27.6075C254.913 22.7521 238.85 18.6102 217.993 15.6774C197.112 12.7414 171.358 11.0087 143.5 11.0087V12.0087ZM26.018 27.4786C35.0081 22.979 50.9373 19.1063 71.3747 16.3614C91.795 13.6189 116.664 12.0087 143.5 12.0087V11.0087C116.627 11.0087 91.7128 12.6209 71.2416 15.3703C50.7875 18.1174 34.7179 22.006 25.5704 26.5843L26.018 27.4786Z" fill="#00E0FF" fill-opacity="0.58"/>
<path fill-rule="evenodd" clip-rule="evenodd" d="M8.52426 49.7305C8.52426 40.3495 15.7928 33.2234 23.7585 34.7948L38.6769 38.4428C40.8773 38.9809 43 37.3147 43 35.0495C43 33.4823 41.9562 32.1069 40.4469 31.6851L24.8513 27.3269C12.9028 24.9699 2 35.6591 2 49.7305V262.738C2 264.539 3.46051 266 5.26213 266C7.06376 266 8.52426 264.54 8.52426 262.738V49.7305Z" fill="#49D6DF"/>
<defs>
<linearGradient id="paint0_linear_843_241786" x1="143.287" y1="246.903" x2="143.287" y2="285.785" gradientUnits="userSpaceOnUse">
<stop stop-color="#7AF7FF"/>
<stop offset="0.43065" stop-color="#A0F4F9"/>
<stop offset="0.510417" stop-color="#9CF9FF"/>
<stop offset="1" stop-color="#48F4FF"/>
</linearGradient>
<linearGradient id="paint1_linear_843_241786" x1="17" y1="140" x2="270" y2="140" gradientUnits="userSpaceOnUse">
<stop stop-color="#48F4FF" stop-opacity="0.78"/>
<stop offset="0.453125" stop-color="#48F4FF" stop-opacity="0"/>
<stop offset="0.541667" stop-color="#48FFFF" stop-opacity="0"/>
<stop offset="1" stop-color="#48E9FF" stop-opacity="0.71"/>
</linearGradient>
<linearGradient id="paint2_linear_843_241786" x1="134.232" y1="-12.5203" x2="137.425" y2="176.365" gradientUnits="userSpaceOnUse">
<stop stop-color="#7EF7FF" stop-opacity="0.84"/>
<stop offset="0.218068" stop-color="#48DEFF" stop-opacity="0"/>
<stop offset="0.838193" stop-color="#48E9FF" stop-opacity="0"/>
<stop offset="1" stop-color="#48F4FF"/>
</linearGradient>
</defs>
</svg>
