<svg width="286" height="286" viewBox="0 0 286 286" fill="none" xmlns="http://www.w3.org/2000/svg">
<path fill-rule="evenodd" clip-rule="evenodd" d="M146.5 272.124C220.752 272.124 280.946 261.302 280.946 247.954V262.14V262.666H280.913C279.324 275.482 219.754 285.785 146.5 285.785C73.2464 285.785 13.676 275.482 12.0872 262.666H12.0547V262.14V247.954C12.0547 261.302 72.248 272.124 146.5 272.124ZM12.1795 246.903C12.0966 247.251 12.0547 247.602 12.0547 247.954V246.903H12.1795ZM280.821 246.903H280.946V247.954C280.946 247.602 280.904 247.251 280.821 246.903Z" fill="url(#paint0_linear_1110_114638)"/>
<path d="M272.469 50.3908L271.975 50.4673L272.041 50.8908H272.469V50.3908ZM20.5309 50.3908V50.8908H20.9595L21.025 50.4673L20.5309 50.3908ZM20.4903 50.3908V49.8908H19.9903V50.3908H20.4903ZM20.4903 246.903H19.9903V247.403H20.4903V246.903ZM20.5309 246.903L21.025 246.979L21.1143 246.403H20.5309V246.903ZM272.469 246.903V246.403H271.886L271.975 246.979L272.469 246.903ZM272.51 246.903V247.403H273.01V246.903H272.51ZM272.51 50.3908H273.01V49.8908H272.51V50.3908ZM272.963 50.3143C272.718 48.7315 271.527 47.2782 269.665 45.9465C267.791 44.6064 265.159 43.3322 261.87 42.1294C255.288 39.7223 245.983 37.5665 234.613 35.7608C211.866 32.1483 180.775 29.9243 146.5 29.9243V30.9243C180.738 30.9243 211.775 33.1463 234.456 36.7484C245.8 38.55 255.033 40.6936 261.526 43.0685C264.775 44.2567 267.313 45.4941 269.084 46.7599C270.865 48.0343 271.791 49.2814 271.975 50.4673L272.963 50.3143ZM146.5 29.9243C112.225 29.9243 81.1341 32.1483 58.3874 35.7608C47.0173 37.5665 37.7116 39.7223 31.1303 42.1294C27.8415 43.3322 25.2088 44.6064 23.3348 45.9465C21.4726 47.2782 20.2818 48.7315 20.0368 50.3143L21.025 50.4673C21.2086 49.2814 22.1345 48.0343 23.9165 46.7599C25.6866 45.4941 28.2252 44.2567 31.4738 43.0685C37.9672 40.6936 47.2004 38.55 58.5442 36.7484C81.2253 33.1463 112.262 30.9243 146.5 30.9243V29.9243ZM20.4903 50.8908H20.5309V49.8908H20.4903V50.8908ZM20.9903 50.9162V50.3908H19.9903V50.9162H20.9903ZM20.9903 246.903V50.9162H19.9903V246.903H20.9903ZM20.5309 246.403H20.4903V247.403H20.5309V246.403ZM20.0368 246.826C20.0059 247.026 19.9903 247.227 19.9903 247.428H20.9903C20.9903 247.279 21.0019 247.129 21.025 246.979L20.0368 246.826ZM19.9903 247.428C19.9903 249.067 21.0112 250.576 22.7393 251.95C24.475 253.329 27.0042 254.638 30.2133 255.871C36.6369 258.341 45.9029 260.556 57.3174 262.412C80.1545 266.126 111.685 268.42 146.5 268.42V267.42C111.722 267.42 80.2474 265.128 57.4779 261.425C46.0892 259.573 36.9015 257.371 30.5722 254.938C27.4049 253.72 24.9828 252.455 23.3614 251.167C21.7324 249.872 20.9903 248.619 20.9903 247.428H19.9903ZM146.5 268.42C181.315 268.42 212.845 266.126 235.683 262.412C247.097 260.556 256.363 258.341 262.787 255.871C265.996 254.638 268.525 253.329 270.261 251.95C271.989 250.576 273.01 249.067 273.01 247.428H272.01C272.01 248.619 271.268 249.872 269.639 251.167C268.017 252.455 265.595 253.72 262.428 254.938C256.099 257.371 246.911 259.573 235.522 261.425C212.753 265.128 181.278 267.42 146.5 267.42V268.42ZM273.01 247.428C273.01 247.227 272.994 247.026 272.963 246.826L271.975 246.979C271.998 247.129 272.01 247.279 272.01 247.428H273.01ZM272.51 246.403H272.469V247.403H272.51V246.403ZM272.01 50.9162V246.903H273.01V50.9162H272.01ZM272.01 50.3908V50.9162H273.01V50.3908H272.01ZM272.469 50.8908H272.51V49.8908H272.469V50.8908Z" fill="#0C69FF" fill-opacity="0.6"/>
<path d="M272.51 35.6787C272.51 22.33 216.093 11.5088 146.5 11.5088C76.9068 11.5088 20.4903 22.33 20.4903 35.6787" stroke="#0C69FF" stroke-opacity="0.6"/>
<path d="M272.51 44.0855C272.51 30.7368 216.093 19.9155 146.5 19.9155C76.9068 19.9155 20.4903 30.7368 20.4903 44.0855" stroke="#0C69FF" stroke-opacity="0.6"/>
<path d="M272.51 50.3906C272.51 61.708 216.093 70.8825 146.5 70.8825C76.9068 70.8825 20.4903 61.708 20.4903 50.3906" stroke="#0C69FF" stroke-opacity="0.2"/>
<ellipse cx="146.5" cy="247.428" rx="126.01" ry="20.4919" fill="#0C69FF" fill-opacity="0.4"/>
<path fill-rule="evenodd" clip-rule="evenodd" d="M20.4903 239.508V246.903H20.531C20.5039 247.077 20.4903 247.252 20.4903 247.428C20.4903 258.746 76.9068 267.92 146.5 267.92C216.093 267.92 272.51 258.746 272.51 247.428C272.51 247.252 272.496 247.077 272.469 246.903H272.51V239.508C277.964 242.137 280.946 244.983 280.946 247.953C280.946 261.302 220.752 272.123 146.5 272.123C72.248 272.123 12.0547 261.302 12.0547 247.953C12.0547 244.983 15.0361 242.137 20.4903 239.508Z" fill="#AAD7FF"/>
<ellipse cx="146.5" cy="247.428" rx="90.1576" ry="15.2376" stroke="#0C69FF" stroke-opacity="0.4"/>
<ellipse cx="146.5" cy="247.428" rx="47.9786" ry="8.93237" stroke="#0C69FF" stroke-opacity="0.4"/>
<path d="M162.344 239.547C162.344 239.848 162.097 240.271 161.3 240.756C160.533 241.222 159.39 241.66 157.933 242.035C155.026 242.782 150.984 243.25 146.5 243.25V244.25C151.043 244.25 155.173 243.777 158.182 243.003C159.683 242.617 160.933 242.15 161.82 241.61C162.677 241.089 163.344 240.406 163.344 239.547H162.344ZM163.344 247.954V239.547H162.344V247.954H163.344ZM146.5 252.657C151.043 252.657 155.173 252.184 158.182 251.41C159.683 251.024 160.933 250.557 161.82 250.017C162.677 249.496 163.344 248.813 163.344 247.954H162.344C162.344 248.255 162.097 248.678 161.3 249.163C160.533 249.629 159.39 250.067 157.933 250.442C155.026 251.189 150.984 251.657 146.5 251.657V252.657ZM129.656 247.954C129.656 248.813 130.323 249.496 131.18 250.017C132.067 250.557 133.318 251.024 134.818 251.41C137.827 252.184 141.957 252.657 146.5 252.657V251.657C142.016 251.657 137.974 251.189 135.067 250.442C133.61 250.067 132.467 249.629 131.7 249.163C130.903 248.678 130.656 248.255 130.656 247.954H129.656ZM129.656 247.954V247.954H130.656V247.954H129.656ZM129.656 239.547V247.954H130.656V239.547H129.656ZM146.5 243.25C142.016 243.25 137.974 242.782 135.067 242.035C133.61 241.66 132.467 241.222 131.7 240.756C130.903 240.271 130.656 239.848 130.656 239.547H129.656C129.656 240.406 130.323 241.089 131.18 241.61C132.067 242.15 133.318 242.617 134.818 243.003C137.827 243.777 141.957 244.25 146.5 244.25V243.25Z" fill="#0C69FF" fill-opacity="0.6"/>
<ellipse cx="146.5" cy="239.547" rx="16.3444" ry="4.20346" stroke="#0C69FF" stroke-opacity="0.6"/>
<path d="M272.51 176.495C272.51 183.169 216.093 188.58 146.5 188.58C76.9067 188.58 20.4902 183.169 20.4902 176.495" stroke="#0C69FF" stroke-opacity="0.6"/>
<path d="M20.4903 177.02C20.4903 170.346 76.9068 164.935 146.5 164.935C216.093 164.935 272.51 170.346 272.51 177.02" stroke="#0C69FF" stroke-opacity="0.2"/>
<path d="M145.973 12.0762V267.92" stroke="#0C69FF" stroke-opacity="0.6"/>
<path d="M162.844 12.0762V267.92" stroke="#0C69FF" stroke-opacity="0.5"/>
<path d="M129.101 11.5088V267.353" stroke="#0C69FF" stroke-opacity="0.5"/>
<path d="M179.716 12.0762V267.139" stroke="#0C69FF" stroke-opacity="0.4"/>
<path d="M112.23 12.0762V267.139" stroke="#0C69FF" stroke-opacity="0.4"/>
<path d="M196.587 13.3638V266.218" stroke="#0C69FF" stroke-opacity="0.3"/>
<path d="M95.358 13.3638V266.218" stroke="#0C69FF" stroke-opacity="0.3"/>
<path d="M213.459 14.9126V264.517" stroke="#0C69FF" stroke-opacity="0.3"/>
<path d="M78.4864 14.9126V264.517" stroke="#0C69FF" stroke-opacity="0.3"/>
<path d="M230.331 17.1816V262.247" stroke="#0C69FF" stroke-opacity="0.1"/>
<path d="M61.6147 17.1816V262.247" stroke="#0C69FF" stroke-opacity="0.1"/>
<path d="M247.202 20.5854V259.411" stroke="#0C69FF" stroke-opacity="0.08"/>
<path d="M44.7432 20.5854V259.411" stroke="#0C69FF" stroke-opacity="0.08"/>
<path d="M264.074 25.6909V253.738" stroke="#0C69FF" stroke-opacity="0.04"/>
<path d="M27.8716 25.6909V253.738" stroke="#0C69FF" stroke-opacity="0.04"/>
<path opacity="0.6" d="M20.4903 35.6787V51.9671" stroke="#0C69FF"/>
<path opacity="0.6" d="M272.51 34.6279V50.9164" stroke="#0C69FF"/>
<path d="M23.8621 46.1874V46.6874H24.0176L24.1456 46.5993L23.8621 46.1874ZM24.1757 45.9766L24.4502 46.3945L23.9884 45.513L24.1757 45.9766ZM23.6538 46.1874L23.4665 45.7238L23.6538 46.6874V46.1874ZM37.2196 40.7066L37.0323 40.243L37.3555 41.1878L37.2196 40.7066ZM254.718 40.4122L254.587 40.8947L254.907 39.9495L254.718 40.4122ZM230.331 30.4244L230.52 29.9617L230.429 29.9244H230.331V30.4244ZM230.265 30.4244L229.78 30.3027L229.624 30.9244H230.265V30.4244ZM62.7353 30.4244V30.9244H63.3763L63.2202 30.3027L62.7353 30.4244ZM62.6694 30.4244V29.9244H62.5722L62.4821 29.9608L62.6694 30.4244ZM24.1456 46.5993C24.2448 46.531 24.3464 46.4627 24.4502 46.3945L23.9011 45.5587C23.7915 45.6308 23.6839 45.7031 23.5786 45.7756L24.1456 46.5993ZM23.9884 45.513L23.4665 45.7238L23.8411 46.651L24.363 46.4402L23.9884 45.513ZM23.6538 46.6874H23.8621V45.6874H23.6538V46.6874ZM37.3555 41.1878C59.0441 35.0618 99.7803 30.9244 146.5 30.9244V29.9244C99.7532 29.9244 58.9068 34.0614 37.0837 40.2254L37.3555 41.1878ZM146.5 30.9244C192.469 30.9244 232.646 34.9298 254.587 40.8947L254.849 39.9298C232.78 33.9299 192.497 29.9244 146.5 29.9244V30.9244ZM254.907 39.9495L230.52 29.9617L230.141 30.8871L254.528 40.8749L254.907 39.9495ZM230.331 29.9244H230.265V30.9244H230.331V29.9244ZM230.75 30.5462C230.803 30.3333 230.831 30.1173 230.831 29.899H229.831C229.831 30.0327 229.814 30.167 229.78 30.3027L230.75 30.5462ZM230.831 29.899C230.831 28.7604 230.095 27.7457 228.932 26.8547C227.758 25.9558 226.058 25.1103 223.917 24.3171C219.629 22.7285 213.452 21.3071 205.855 20.1166C190.652 17.7344 169.667 16.2632 146.5 16.2632V17.2632C169.632 17.2632 190.562 18.7326 205.7 21.1046C213.273 22.2912 219.373 23.7003 223.569 25.2548C225.67 26.0331 227.264 26.8373 228.324 27.6487C229.394 28.4679 229.831 29.224 229.831 29.899H230.831ZM146.5 16.2632C123.333 16.2632 102.349 17.7344 87.1455 20.1166C79.5479 21.3071 73.3716 22.7285 69.0836 24.3171C66.9424 25.1103 65.2424 25.9558 64.0686 26.8547C62.905 27.7457 62.1694 28.7604 62.1694 29.899H63.1694C63.1694 29.224 63.6068 28.4679 64.6766 27.6487C65.7361 26.8373 67.3301 26.0331 69.431 25.2548C73.6271 23.7003 79.7275 22.2912 87.3003 21.1046C102.438 18.7326 123.369 17.2632 146.5 17.2632V16.2632ZM62.1694 29.899C62.1694 30.1173 62.1969 30.3333 62.2503 30.5462L63.2202 30.3027C63.1862 30.167 63.1694 30.0327 63.1694 29.899H62.1694ZM62.7353 29.9244H62.6694V30.9244H62.7353V29.9244ZM62.4821 29.9608L37.0323 40.243L37.4069 41.1702L62.8567 30.888L62.4821 29.9608Z" fill="#0C69FF" fill-opacity="0.6"/>
<path fill-rule="evenodd" clip-rule="evenodd" d="M20.4903 35.6787C20.4903 22.33 76.9067 11.5088 146.5 11.5088C216.093 11.5088 272.51 22.33 272.51 35.6787V248.5H272.002C270.875 259.659 214.898 268.649 146.01 268.649C76.4165 268.649 20 259.474 20 248.157C20 247.543 20.1657 246.936 20.4903 246.337V35.6787Z" fill="url(#paint1_linear_1110_114638)"/>
<path fill-rule="evenodd" clip-rule="evenodd" d="M28.7943 27.0314C47.4154 15.9438 88.4068 1 148.754 1C212.772 1 251.041 17.1083 266.088 28.0407C249.421 18.4351 202.178 11.5087 146.5 11.5087C92.792 11.5087 46.9319 17.9536 28.7943 27.0314Z" fill="url(#paint2_linear_1110_114638)"/>
<path d="M28.7943 27.0314L28.5384 26.6018L29.018 27.4786L28.7943 27.0314ZM266.088 28.0407L265.839 28.4739L266.382 27.6362L266.088 28.0407ZM148.754 0.5C88.3305 0.5 47.248 15.4615 28.5384 26.6018L29.0501 27.461C47.5828 16.426 88.4831 1.5 148.754 1.5V0.5ZM266.382 27.6362C251.226 16.6249 212.845 0.5 148.754 0.5V1.5C212.699 1.5 250.856 17.5916 265.795 28.4452L266.382 27.6362ZM146.5 12.0087C174.32 12.0087 200.027 13.7392 220.854 16.6677C241.705 19.5996 257.596 23.7236 265.839 28.4739L266.338 27.6075C257.913 22.7521 241.85 18.6102 220.993 15.6774C200.112 12.7414 174.358 11.0087 146.5 11.0087V12.0087ZM29.018 27.4786C38.0082 22.979 53.9374 19.1063 74.3748 16.3614C94.795 13.6189 119.665 12.0087 146.5 12.0087V11.0087C119.627 11.0087 94.7129 12.6209 74.2417 15.3703C53.7876 18.1174 37.7179 22.006 28.5705 26.5843L29.018 27.4786Z" fill="#0062FF" fill-opacity="0.58"/>
<path fill-rule="evenodd" clip-rule="evenodd" d="M11.5243 49.7305C11.5243 40.3495 18.7928 33.2234 26.7585 34.7948L41.6769 38.4428C43.8773 38.9809 46 37.3147 46 35.0495C46 33.4823 44.9562 32.1069 43.4469 31.6851L27.8513 27.3269C15.9028 24.9699 5 35.6591 5 49.7305V262.738C5 264.539 6.46051 266 8.26213 266C10.0638 266 11.5243 264.54 11.5243 262.738V49.7305Z" fill="#498ADF"/>
<defs>
<linearGradient id="paint0_linear_1110_114638" x1="146.287" y1="246.903" x2="146.287" y2="285.785" gradientUnits="userSpaceOnUse">
<stop stop-color="#7AB4FF"/>
<stop offset="0.43075" stop-color="#9CCCFF"/>
<stop offset="1" stop-color="#4898FF"/>
</linearGradient>
<linearGradient id="paint1_linear_1110_114638" x1="20" y1="140" x2="273" y2="140" gradientUnits="userSpaceOnUse">
<stop stop-color="#4898FF" stop-opacity="0.78"/>
<stop offset="0.453125" stop-color="#4898FF" stop-opacity="0"/>
<stop offset="0.541667" stop-color="#4898FF" stop-opacity="0"/>
<stop offset="1" stop-color="#4898FF" stop-opacity="0.71"/>
</linearGradient>
<linearGradient id="paint2_linear_1110_114638" x1="137.233" y1="-12.5203" x2="140.425" y2="176.365" gradientUnits="userSpaceOnUse">
<stop stop-color="#7EB7FF" stop-opacity="0.84"/>
<stop offset="0.218068" stop-color="#4898FF" stop-opacity="0"/>
<stop offset="0.838193" stop-color="#4898FF" stop-opacity="0"/>
<stop offset="1" stop-color="#4898FF"/>
</linearGradient>
</defs>
</svg>
