<svg width="253" height="348" viewBox="0 0 253 348" fill="none" xmlns="http://www.w3.org/2000/svg">
<path fill-rule="evenodd" clip-rule="evenodd" d="M0 0V67H0.0280652C1.46039 54.2522 57.5354 44 126.5 44C195.465 44 251.54 54.2522 252.972 67H253V2.20305e-05L0 0ZM0 279.492V279H0.0357403C0.0119578 279.164 0 279.328 0 279.492ZM0 279.492C0 290.809 56.6404 299.984 126.51 299.984C195.629 299.984 251.802 291.005 253 279.856V348H0V279.492ZM253 279V279.128C252.995 279.085 252.99 279.043 252.984 279H253Z" fill="#101A32"/>
</svg>
