<svg width="270" height="398" viewBox="0 0 270 398" fill="none" xmlns="http://www.w3.org/2000/svg">
<g clip-path="url(#clip0_843_242733)">
<path fill-rule="evenodd" clip-rule="evenodd" d="M0 0H270V129.464L269.791 129.279C269.347 128.599 268.793 127.935 268.137 127.287C267.028 126.191 265.615 125.127 263.924 124.098L204.204 71.3509C204.211 71.1926 204.214 71.034 204.214 70.875C204.214 66.9048 202.214 63.1765 198.714 59.842C195.214 56.5088 190.18 53.5322 184.004 51.044C171.649 46.0663 154.619 43 135.836 43C117.053 43 100.023 46.0663 87.6681 51.044C81.4922 53.5322 76.4578 56.5088 72.9585 59.842C69.4578 63.1765 67.4584 66.9048 67.4584 70.875C67.4584 71.0314 67.4615 71.1875 67.4677 71.3432L7.06835 123.906C5.23566 124.995 3.71465 126.122 2.5363 127.287C1.87342 127.942 1.31392 128.614 0.868194 129.301L0.175926 129.904V130.591C0.111815 130.742 0.0531391 130.893 0 131.044V0ZM267.399 272.033L270 270.178V398H0V270H0.42649L3.12576 271.902C4.30361 272.957 5.76443 273.981 7.48445 274.972L83.966 328.852H84.0062C84.0939 330.027 84.3223 331.182 84.6827 332.314C86.5048 338.036 91.7015 343.155 99.1578 347.083C108.544 352.028 121.512 355.087 135.836 355.087C163.788 355.087 186.576 343.439 187.665 328.852H187.706L263.685 274.681C265.122 273.822 266.365 272.939 267.399 272.033Z" fill="#101A32"/>
</g>
<defs>
<clipPath id="clip0_843_242733">
<rect width="270" height="398" fill="white"/>
</clipPath>
</defs>
</svg>
