<svg width="154" height="189" viewBox="0 0 154 189" fill="none" xmlns="http://www.w3.org/2000/svg">
<path fill-rule="evenodd" clip-rule="evenodd" d="M9.59983 26.2901L9.59961 26.3179L9.59983 26.3457V132.193V132.522H9.59983L9.63883 132.566C9.80701 133.369 10.5163 134.149 11.7097 134.898L41.1328 168.033V168.033C41.1328 169.295 43.0704 170.474 46.4295 171.476L58.3328 179.213L58.333 179.213C58.333 181.029 66.6754 182.501 76.9663 182.501C87.2572 182.501 95.5996 181.029 95.5996 179.213L107.503 171.476C110.862 170.474 112.8 169.295 112.8 168.033H112.8L142.223 134.898C143.417 134.149 144.126 133.369 144.294 132.566L144.333 132.522V132.193V25.9891H144.303C143.223 20.1486 113.489 15.4673 76.9663 15.4673C40.4436 15.4673 10.7092 20.1486 9.62995 25.9891H9.59983V26.2901Z" fill="url(#paint0_linear_851_126176)"/>
<path d="M144.333 132.193C144.333 138.186 114.172 143.044 76.9663 143.044C39.7607 143.044 9.59961 138.186 9.59961 132.193" stroke="#0C69FF" stroke-opacity="0.6" stroke-width="0.712413"/>
<path d="M144.333 132.193C144.333 126.201 114.172 121.343 76.9663 121.343C39.7607 121.343 9.59961 126.201 9.59961 132.193" stroke="#0C69FF" stroke-opacity="0.2" stroke-width="0.712413"/>
<path d="M144.333 78.9268C144.333 72.9341 114.172 68.0762 76.9663 68.0762C39.7607 68.0762 9.59961 72.9341 9.59961 78.9268" stroke="#0C69FF" stroke-opacity="0.2" stroke-width="0.712413"/>
<path d="M144.333 79.2559C144.333 85.4301 114.172 90.4353 76.9663 90.4353C39.7607 90.4353 9.59961 85.4301 9.59961 79.2559" stroke="#0C69FF" stroke-opacity="0.6" stroke-width="0.712413"/>
<ellipse cx="76.9663" cy="179.213" rx="18.6333" ry="3.28806" stroke="#0C69FF" stroke-opacity="0.6" stroke-width="0.712413"/>
<ellipse cx="76.9663" cy="179.213" rx="18.6333" ry="3.28806" fill="#0C69FF" fill-opacity="0.4"/>
<path d="M112.799 168.033C112.799 171.665 96.7564 174.609 76.9661 174.609C57.1759 174.609 41.1328 171.665 41.1328 168.033" stroke="#0C69FF" stroke-opacity="0.6" stroke-width="0.712413"/>
<path d="M112.799 168.033C112.799 164.401 96.7564 161.457 76.9661 161.457C57.1759 161.457 41.1328 164.401 41.1328 168.033" stroke="#0C69FF" stroke-opacity="0.2" stroke-width="0.712413"/>
<ellipse cx="76.9663" cy="26.3179" rx="67.3667" ry="10.8506" stroke="#0C69FF" stroke-opacity="0.6" stroke-width="0.712413"/>
<path fill-rule="evenodd" clip-rule="evenodd" d="M46.8663 5.92059C46.8662 5.92442 46.8662 5.92825 46.8662 5.93209C46.8662 5.93592 46.8662 5.93976 46.8663 5.94359V26.318V26.6469H46.9321C47.9647 29.2175 61.0168 31.2501 76.9663 31.2501C92.9158 31.2501 105.968 29.2175 107 26.6469H107.066V26.318V5.60328H107C105.968 3.03267 92.9157 1 76.9662 1C61.0167 1 47.9646 3.03267 46.932 5.60328H46.8663V5.92059Z" fill="url(#paint1_linear_851_126176)"/>
<path d="M46.8663 5.92059L47.2225 5.92555V5.92059H46.8663ZM46.8663 5.94359L47.2225 5.94359L47.2225 5.93863L46.8663 5.94359ZM46.8663 26.6469H46.5101V27.0031H46.8663V26.6469ZM46.9321 26.6469L47.2627 26.5141L47.1729 26.2906H46.9321V26.6469ZM107 26.6469V26.2906H106.76L106.67 26.5141L107 26.6469ZM107.066 26.6469V27.0031H107.422V26.6469H107.066ZM107.066 5.60328H107.422V5.24708H107.066V5.60328ZM107 5.60328L106.67 5.73606L106.76 5.95949H107V5.60328ZM46.932 5.60328V5.95949H47.1728L47.2626 5.73606L46.932 5.60328ZM46.8663 5.60328V5.24708H46.5101V5.60328H46.8663ZM46.5101 5.91562C46.51 5.92111 46.51 5.9266 46.51 5.93209H47.2224C47.2224 5.92991 47.2224 5.92773 47.2225 5.92555L46.5101 5.91562ZM46.51 5.93209C46.51 5.93758 46.51 5.94306 46.5101 5.94855L47.2225 5.93863C47.2224 5.93645 47.2224 5.93427 47.2224 5.93209H46.51ZM47.2225 26.318V5.94359H46.5101V26.318H47.2225ZM47.2225 26.6469V26.318H46.5101V26.6469H47.2225ZM46.9321 26.2906H46.8663V27.0031H46.9321V26.2906ZM46.6016 26.7796C46.773 27.2063 47.1676 27.5697 47.6774 27.8855C48.1958 28.2066 48.8803 28.5071 49.7027 28.7877C51.3489 29.3494 53.5987 29.8483 56.3012 30.2645C61.7094 31.0975 68.9786 31.6063 76.9663 31.6063V30.8939C69.0045 30.8939 61.7729 30.3865 56.4096 29.5604C53.7262 29.1471 51.5226 28.6559 49.9327 28.1135C49.1371 27.842 48.5079 27.5619 48.0525 27.2799C47.5886 26.9925 47.3494 26.7301 47.2627 26.5141L46.6016 26.7796ZM76.9663 31.6063C84.954 31.6063 92.2232 31.0975 97.6314 30.2645C100.334 29.8483 102.584 29.3494 104.23 28.7877C105.052 28.5071 105.737 28.2066 106.255 27.8855C106.765 27.5697 107.16 27.2063 107.331 26.7796L106.67 26.5141C106.583 26.7301 106.344 26.9925 105.88 27.2799C105.425 27.5619 104.795 27.842 104 28.1135C102.41 28.6559 100.206 29.1471 97.523 29.5604C92.1596 30.3865 84.9281 30.8939 76.9663 30.8939V31.6063ZM107.066 26.2906H107V27.0031H107.066V26.2906ZM106.71 26.318V26.6469H107.422V26.318H106.71ZM106.71 5.60328V26.318H107.422V5.60328H106.71ZM107 5.95949H107.066V5.24708H107V5.95949ZM107.331 5.47051C107.16 5.04386 106.765 4.68041 106.255 4.36462C105.737 4.04349 105.052 3.74301 104.23 3.46242C102.584 2.90075 100.334 2.40182 97.6313 1.98561C92.2231 1.15265 84.9539 0.643794 76.9662 0.643794V1.35621C84.928 1.35621 92.1596 1.86368 97.5229 2.68972C100.206 3.103 102.41 3.59423 104 4.13667C104.795 4.40812 105.425 4.68819 105.88 4.97025C106.344 5.25766 106.583 5.52005 106.67 5.73606L107.331 5.47051ZM76.9662 0.643794C68.9785 0.643794 61.7093 1.15265 56.3011 1.98561C53.5987 2.40182 51.3488 2.90075 49.7026 3.46242C48.8802 3.74301 48.1957 4.04349 47.6773 4.36462C47.1675 4.68041 46.7729 5.04386 46.6015 5.47051L47.2626 5.73606C47.3493 5.52005 47.5885 5.25766 48.0524 4.97025C48.5078 4.68819 49.137 4.40812 49.9326 4.13667C51.5225 3.59423 53.7261 3.103 56.4095 2.68972C61.7729 1.86368 69.0044 1.35621 76.9662 1.35621V0.643794ZM46.8663 5.95949H46.932V5.24708H46.8663V5.95949ZM47.2225 5.92059V5.60328H46.5101V5.92059H47.2225Z" fill="#0E49AD"/>
<path fill-rule="evenodd" clip-rule="evenodd" d="M89.7358 26.6467C88.8416 25.5313 83.4652 24.6738 76.9664 24.6738C70.4676 24.6738 65.0913 25.5313 64.197 26.6467H64.0664V26.9755V179.213C64.0664 180.302 69.8419 181.185 76.9664 181.185C84.0909 181.185 89.8664 180.302 89.8664 179.213V26.9755V26.6467H89.7358Z" fill="url(#paint2_linear_851_126176)" fill-opacity="0.4"/>
<ellipse cx="76.9664" cy="179.213" rx="12.9" ry="1.97284" stroke="#0C69FF" stroke-opacity="0.6" stroke-width="0.712413"/>
<path d="M89.5102 26.9755C89.5102 26.9889 89.5036 27.0545 89.3702 27.1708C89.2389 27.2854 89.0242 27.4124 88.7142 27.5432C88.0971 27.8035 87.1825 28.0459 86.0255 28.2523C83.7174 28.6641 80.5143 28.9209 76.9664 28.9209C73.4185 28.9209 70.2154 28.6641 67.9073 28.2523C66.7503 28.0459 65.8357 27.8035 65.2186 27.5432C64.9086 27.4124 64.694 27.2854 64.5626 27.1708C64.4292 27.0545 64.4226 26.9889 64.4226 26.9755C64.4226 26.962 64.4292 26.8964 64.5626 26.7801C64.694 26.6655 64.9086 26.5385 65.2186 26.4078C65.8357 26.1475 66.7503 25.9051 67.9073 25.6986C70.2154 25.2868 73.4185 25.03 76.9664 25.03C80.5143 25.03 83.7174 25.2868 86.0255 25.6986C87.1825 25.9051 88.0971 26.1475 88.7142 26.4078C89.0242 26.5385 89.2389 26.6655 89.3702 26.7801C89.5036 26.8964 89.5102 26.962 89.5102 26.9755Z" stroke="#0C69FF" stroke-opacity="0.6" stroke-width="0.712413"/>
<rect x="74.0996" y="123.974" width="8.6" height="64.4459" rx="4.3" fill="url(#paint3_linear_851_126176)" stroke="#0E49AD" stroke-width="0.712413"/>
<rect x="144.333" y="123.974" width="8.6" height="64.4459" rx="4.3" fill="url(#paint4_linear_851_126176)" stroke="#0E49AD" stroke-width="0.712413"/>
<rect x="1" y="123.974" width="8.6" height="64.4459" rx="4.3" fill="url(#paint5_linear_851_126176)" stroke="#0E49AD" stroke-width="0.712413"/>
<path d="M47.5829 26.647L33.6564 32.7587C32.1029 33.4404 31.0996 34.9763 31.0996 36.6728V138.067C31.0996 139.152 31.5124 140.197 32.2542 140.989L70.5163 181.843" stroke="#0C69FF" stroke-opacity="0.6" stroke-width="0.712413"/>
<path d="M105.633 26.647L119.559 32.7587C121.113 33.4404 122.116 34.9763 122.116 36.6728V138.067C122.116 139.152 121.703 140.197 120.962 140.989L82.6995 181.843" stroke="#0C69FF" stroke-opacity="0.6" stroke-width="0.712413"/>
<defs>
<linearGradient id="paint0_linear_851_126176" x1="9.59961" y1="98.9329" x2="144.595" y2="98.9329" gradientUnits="userSpaceOnUse">
<stop stop-color="#4898FF" stop-opacity="0.78"/>
<stop offset="0.453125" stop-color="#4898FF" stop-opacity="0"/>
<stop offset="0.541667" stop-color="#4898FF" stop-opacity="0"/>
<stop offset="1" stop-color="#4898FF" stop-opacity="0.71"/>
</linearGradient>
<linearGradient id="paint1_linear_851_126176" x1="46.8662" y1="16.1158" x2="107.183" y2="16.1158" gradientUnits="userSpaceOnUse">
<stop stop-color="#4898FF" stop-opacity="0.78"/>
<stop offset="0.494792" stop-color="#4898FF" stop-opacity="0.28"/>
<stop offset="1" stop-color="#4898FF" stop-opacity="0.71"/>
</linearGradient>
<linearGradient id="paint2_linear_851_126176" x1="89.8664" y1="102.502" x2="64.0664" y2="102.502" gradientUnits="userSpaceOnUse">
<stop stop-color="#006AFF"/>
<stop offset="0.46875" stop-color="#006AFF" stop-opacity="0"/>
<stop offset="1" stop-color="#006AFF"/>
</linearGradient>
<linearGradient id="paint3_linear_851_126176" x1="74.0996" y1="156.177" x2="82.7163" y2="156.177" gradientUnits="userSpaceOnUse">
<stop stop-color="#4898FF" stop-opacity="0.78"/>
<stop offset="0.311769" stop-color="#91C1FF" stop-opacity="0.885973"/>
<stop offset="0.632159" stop-color="#97C4FF"/>
<stop offset="1" stop-color="#4898FF" stop-opacity="0.71"/>
</linearGradient>
<linearGradient id="paint4_linear_851_126176" x1="144.333" y1="156.177" x2="152.95" y2="156.177" gradientUnits="userSpaceOnUse">
<stop stop-color="#4898FF" stop-opacity="0.78"/>
<stop offset="0.311769" stop-color="#91C1FF" stop-opacity="0.885973"/>
<stop offset="0.632159" stop-color="#97C4FF"/>
<stop offset="1" stop-color="#4898FF" stop-opacity="0.71"/>
</linearGradient>
<linearGradient id="paint5_linear_851_126176" x1="1" y1="156.177" x2="9.6167" y2="156.177" gradientUnits="userSpaceOnUse">
<stop stop-color="#4898FF" stop-opacity="0.78"/>
<stop offset="0.311769" stop-color="#91C1FF" stop-opacity="0.885973"/>
<stop offset="0.632159" stop-color="#97C4FF"/>
<stop offset="1" stop-color="#4898FF" stop-opacity="0.71"/>
</linearGradient>
</defs>
</svg>
