<svg width="135" height="220" viewBox="0 0 135 220" fill="none" xmlns="http://www.w3.org/2000/svg">
<path fill-rule="evenodd" clip-rule="evenodd" d="M135 0H0V36.9134V220H135V143.698C135 143.72 134.992 143.742 134.977 143.758C134.966 143.77 134.959 143.785 134.956 143.8C134.805 144.478 134.273 145.139 133.393 145.78C133.065 146.018 132.749 146.276 132.481 146.58L103.404 179.449L103.404 179.449L103.404 179.449C103.404 180.642 101.689 181.762 98.6877 182.728C98.2973 182.854 97.9224 183.025 97.579 183.249L88.1089 189.428C87.6433 189.732 87.195 190.118 86.7427 190.507C86.0199 191.129 85.2869 191.76 84.4575 192.078C81.4984 193.213 75.0181 194 67.4999 194C57.1889 194 48.8301 192.519 48.8297 190.693L48.8296 190.693L37.4206 183.249C37.0772 183.025 36.7023 182.854 36.3119 182.728C33.3108 181.762 31.5956 180.642 31.5956 179.449L31.5953 179.448L2.51956 146.58C2.25074 146.276 1.93546 146.018 1.60739 145.78C0.727043 145.139 0.194794 144.478 0.0443923 143.8C0.0409433 143.785 0.0337462 143.77 0.0232015 143.758C0.00839191 143.742 0.000216484 143.72 0.000216484 143.698V143.402V36.9413L0 36.9134L0.000216484 36.8854V36.5991C0.000216484 36.59 0.00759031 36.5827 0.0166864 36.5827C0.0246324 36.5827 0.0313622 36.5774 0.0328559 36.5696C1.156 30.7014 30.9321 26 67.4999 26C104.067 26 133.843 30.7013 134.967 36.5694C134.968 36.5773 134.975 36.5827 134.983 36.5827C134.993 36.5827 135 36.5901 135 36.5994V0Z" fill="#101A32"/>
</svg>
